<?xml version="1.0" encoding="UTF-8" standalone="no"?>
<!DOCTYPE svg PUBLIC "-//W3C//DTD SVG 1.1//EN" "http://www.w3.org/Graphics/SVG/1.1/DTD/svg11.dtd">
<svg width="100%" height="100%" viewBox="0 0 600 600" version="1.1" xmlns="http://www.w3.org/2000/svg" xmlns:xlink="http://www.w3.org/1999/xlink" xml:space="preserve" xmlns:serif="http://www.serif.com/" style="fill-rule:evenodd;clip-rule:evenodd;stroke-linejoin:round;stroke-miterlimit:2;">
    <g transform="matrix(8.52569,0,0,8.54767,-20.1397,43.4668)">
        <path d="M49.57,20.73C49.45,21.01 49.313,21.217 49.16,21.35C48.847,21.617 48.613,21.56 48.46,21.18C48.053,20.133 47.403,19.243 46.51,18.51C46.057,18.137 45.88,18.24 45.98,18.82C46.113,19.633 45.887,20.113 45.3,20.26C42.733,15.82 39.407,12.117 35.32,9.15C35.073,8.97 34.953,9.033 34.96,9.34L35.18,16.11C32.867,15.79 30.337,16.37 27.59,17.85L37.43,1.19C37.444,1.165 37.462,1.141 37.483,1.12C37.607,0.996 37.808,0.992 37.928,1.112C37.949,1.132 37.966,1.155 37.98,1.18L49.57,20.73Z" style="fill:rgb(43,156,68);fill-rule:nonzero;"/>
    </g>
    <g transform="matrix(8.52569,0,0,8.54767,-20.1397,43.4668)">
        <path d="M45.3,20.26C46.673,22.42 46.957,24.957 46.15,27.87C46.017,33.037 43.857,37.637 39.67,41.67C35.07,46.11 34.513,51.683 38,58.39C29.047,52.563 25.687,44.673 27.92,34.72L33.92,21.08L35.18,16.11L34.96,9.34C34.953,9.033 35.073,8.97 35.32,9.15C39.407,12.117 42.733,15.82 45.3,20.26ZM38.77,20.01L38.72,23.03C38.21,28.66 36.35,31.86 34.15,36.33C30.75,43.2 30.29,49.1 35.18,55.35C35.293,55.49 35.417,55.557 35.55,55.55C35.843,55.537 35.913,55.403 35.76,55.15C30.65,46.43 33.9,41.2 39.39,34.46C41.75,31.56 43.6,28.337 44.94,24.79C45.02,22.572 44.251,20.509 42.87,18.43C41.283,15.637 39.347,13.367 37.06,11.62C36.753,11.387 36.647,11.457 36.74,11.83L38.77,20.01Z" style="fill:white;fill-rule:nonzero;"/>
    </g>
    <g transform="matrix(8.52569,0,0,8.54767,-20.1397,43.4668)">
        <path d="M42.87,18.43C42.203,18.643 41.323,18.22 40.23,17.16C40.192,17.121 40.145,17.091 40.094,17.074C39.912,17.013 39.71,17.116 39.647,17.304C39.63,17.354 39.624,17.407 39.63,17.46C39.803,18.853 39.517,19.703 38.77,20.01L36.74,11.83C36.647,11.457 36.753,11.387 37.06,11.62C39.347,13.367 41.283,15.637 42.87,18.43Z" style="fill:rgb(43,156,68);fill-rule:nonzero;"/>
    </g>
    <g transform="matrix(8.52569,0,0,8.54767,-20.1397,43.4668)">
        <path d="M35.18,16.11L33.92,21.08C30.293,21.573 26.747,22.927 23.28,25.14L27.59,17.85C30.337,16.37 32.867,15.79 35.18,16.11Z" style="fill:rgb(119,175,64);fill-rule:nonzero;"/>
    </g>
    <g transform="matrix(8.52569,0,0,8.54767,-20.1397,43.4668)">
        <path d="M42.87,18.43C44.413,20.565 45.052,22.754 44.94,24.79L38.72,23.03L38.77,20.01C39.517,19.703 39.803,18.853 39.63,17.46C39.624,17.407 39.63,17.354 39.647,17.304C39.71,17.116 39.912,17.013 40.094,17.074C40.145,17.091 40.192,17.121 40.23,17.16C41.323,18.22 42.203,18.643 42.87,18.43Z" style="fill:rgb(119,175,64);fill-rule:nonzero;"/>
    </g>
    <g transform="matrix(8.52569,0,0,8.54767,-20.1397,43.4668)">
        <path d="M49.57,20.73L72,59L58.09,59C61.123,55.053 62.423,50.687 61.99,45.9C61.89,44.807 61.51,43.627 60.85,42.36C60.263,41.247 59.697,40.123 59.15,38.99C57.177,34.897 54.657,31.17 51.59,27.81C51.377,27.577 51.117,27.413 50.81,27.32C49.77,27 48.69,26.303 47.57,25.23C46.863,26.01 46.667,27.013 46.98,28.24C46.827,28.12 46.717,27.93 46.65,27.67C46.623,27.557 46.573,27.547 46.5,27.64C46.427,27.727 46.31,27.803 46.15,27.87C46.957,24.957 46.673,22.42 45.3,20.26C45.887,20.113 46.113,19.633 45.98,18.82C45.88,18.24 46.057,18.137 46.51,18.51C47.403,19.243 48.053,20.133 48.46,21.18C48.613,21.56 48.847,21.617 49.16,21.35C49.313,21.217 49.45,21.01 49.57,20.73Z" style="fill:rgb(119,175,64);fill-rule:nonzero;"/>
    </g>
    <g transform="matrix(8.52569,0,0,8.54767,-20.1397,43.4668)">
        <path d="M33.92,21.08L27.92,34.72C27.22,33.7 26.133,34.047 24.66,35.76C23.987,36.54 23.397,37.44 22.89,38.46C20.923,42.48 20.42,46.727 21.38,51.2C21.6,52.24 22.14,53.547 23,55.12C23.68,56.373 24.29,57.667 24.83,59L16.36,59C14.14,54.513 13.183,49.847 13.49,45C13.557,43.893 13.91,42.873 14.55,41.94C15.223,40.953 15.22,40.223 14.54,39.75L23.28,25.14C26.747,22.927 30.293,21.573 33.92,21.08Z" style="fill:rgb(159,192,58);fill-rule:nonzero;"/>
    </g>
    <g transform="matrix(8.52569,0,0,8.54767,-20.1397,43.4668)">
        <path d="M38.72,23.03L44.94,24.79C43.6,28.337 41.75,31.56 39.39,34.46C33.9,41.2 30.65,46.43 35.76,55.15C35.913,55.403 35.843,55.537 35.55,55.55C35.417,55.557 35.293,55.49 35.18,55.35C30.29,49.1 30.75,43.2 34.15,36.33C36.35,31.86 38.21,28.66 38.72,23.03Z" style="fill:rgb(195,208,46);fill-rule:nonzero;"/>
    </g>
    <g transform="matrix(8.52569,0,0,8.54767,-20.1397,43.4668)">
        <path d="M58.09,59L48.01,59C49.79,57.867 51.233,55.983 52.34,53.35C53.587,50.383 54.09,48.35 53.85,47.25C52.83,42.683 51.147,38.47 48.8,34.61C48.933,31.697 48.523,28.57 47.57,25.23C48.69,26.303 49.77,27 50.81,27.32C51.117,27.413 51.377,27.577 51.59,27.81C54.657,31.17 57.177,34.897 59.15,38.99C59.697,40.123 60.263,41.247 60.85,42.36C61.51,43.627 61.89,44.807 61.99,45.9C62.423,50.687 61.123,55.053 58.09,59Z" style="fill:rgb(159,192,58);fill-rule:nonzero;"/>
    </g>
    <g transform="matrix(8.52569,0,0,8.54767,-20.1397,43.4668)">
        <path d="M47.57,25.23C48.523,28.57 48.933,31.697 48.8,34.61C48.093,43.123 44.847,51.013 39.06,58.28C38.96,58.4 38.937,58.537 38.99,58.69C39.023,58.783 39.027,58.887 39,59L37.23,59C37.87,58.647 38.173,58.313 38.14,58C44.79,50.07 49.39,38.56 46.98,28.24C46.667,27.013 46.863,26.01 47.57,25.23Z" style="fill:rgb(238,239,195);fill-rule:nonzero;"/>
    </g>
    <g transform="matrix(8.52569,0,0,8.54767,-20.1397,43.4668)">
        <path d="M46.98,28.24C49.39,38.56 44.79,50.07 38.14,58C37.647,57.98 37.6,58.11 38,58.39C34.513,51.683 35.07,46.11 39.67,41.67C43.857,37.637 46.017,33.037 46.15,27.87C46.31,27.803 46.427,27.727 46.5,27.64C46.573,27.547 46.623,27.557 46.65,27.67C46.717,27.93 46.827,28.12 46.98,28.24Z" style="fill:rgb(210,215,37);fill-rule:nonzero;"/>
    </g>
    <g transform="matrix(8.52569,0,0,8.54767,-20.1397,43.4668)">
        <path d="M27.92,34.72C25.687,44.673 29.047,52.563 38,58.39C37.6,58.11 37.647,57.98 38.14,58C38.173,58.313 37.87,58.647 37.23,59L24.83,59C24.29,57.667 23.68,56.373 23,55.12C22.14,53.547 21.6,52.24 21.38,51.2C20.42,46.727 20.923,42.48 22.89,38.46C23.397,37.44 23.987,36.54 24.66,35.76C26.133,34.047 27.22,33.7 27.92,34.72Z" style="fill:rgb(195,208,46);fill-rule:nonzero;"/>
    </g>
    <g transform="matrix(8.52569,0,0,8.54767,-20.1397,43.4668)">
        <path d="M48.8,34.61C51.147,38.47 52.83,42.683 53.85,47.25C54.09,48.35 53.587,50.383 52.34,53.35C51.233,55.983 49.79,57.867 48.01,59L39,59C39.027,58.887 39.023,58.783 38.99,58.69C38.937,58.537 38.96,58.4 39.06,58.28C44.847,51.013 48.093,43.123 48.8,34.61Z" style="fill:rgb(195,208,46);fill-rule:nonzero;"/>
    </g>
    <g transform="matrix(8.52569,0,0,8.54767,-20.1397,43.4668)">
        <path d="M14.54,39.75C15.22,40.223 15.223,40.953 14.55,41.94C13.91,42.873 13.557,43.893 13.49,45C13.183,49.847 14.14,54.513 16.36,59L7.69,59L6.91,52.64L14.54,39.75Z" style="fill:rgb(119,175,64);fill-rule:nonzero;"/>
    </g>
    <g transform="matrix(8.52569,0,0,8.54767,-20.1397,43.4668)">
        <path d="M6.91,52.64L7.69,59L3.1,59L6.91,52.64Z" style="fill:rgb(43,156,68);fill-rule:nonzero;"/>
    </g>
</svg>
